# xmcd
#
# Track frame offsets:
#	150
#	15892
#	37922
#	56607
#	73895
#	92252
#	108305
#	127977
#	147167
#	165445
#	186630
#	192430
#	215150
#	230010
#	253360
#
# Disc length: 3653 seconds
#
# Revision: 1
# Processed by: cddbd v1.5.1PL0 Copyright (c) Steve Scherf et al.
# Submitted via: CDex 1.50Beta5
#
DISCID=d60e430f
DTITLE=山本達彦 - TWIN BEST 山本達彦 Disc 2
DYEAR=1998
DGENRE=
TTITLE0=WELCOME TO MY PARTY
TTITLE1=夢より苦しく
TTITLE2=密会のHIGH NOON
TTITLE3=MAGIC
TTITLE4=LAST SHOW
TTITLE5=SUNSET BULE
TTITLE6=MAY STORM
TTITLE7=L’ECUME DES JOURS
TTITLE8=JAZZY AGE
TTITLE9=DANCIN’ON THE BEAM
TTITLE10=太陽がいっぱい
TTITLE11=紫陽花
TTITLE12=九月のフォトグラフ
TTITLE13=雨に想いを
TTITLE14=悲しみの外電
EXTD=
EXTT0=
EXTT1=
EXTT2=
EXTT3=
EXTT4=
EXTT5=
EXTT6=
EXTT7=
EXTT8=
EXTT9=
EXTT10=
EXTT11=
EXTT12=
EXTT13=
EXTT14=
PLAYORDER=
